# xmcd
# 
# Track frame offsets:
#     150
#     13529
#     29004
#     47225
#     58043
#     72603
#     85684
#     99087
#     116827
#     132670
#     149492
#     173017
#     186036
#     204532
#     222681
#     232183
#     253798
#     272862
#     287006
#     306783
#     330249
# 
# Disc length: 4563
# 
# Revision: 2
# Processed by: cddbd v1.5.2PL0 Copyright (c) Steve Scherf et al.
# Submitted via: fre:ac v1.0.17
# 
DISCID=4911d115
DTITLE=The Ozark Mountain Daredevils - The Car Over The Lake Album/Men From Earth
DYEAR=1975
DGENRE=Country Rock
TTITLE0=Keep On Churnin'
TTITLE1=If I Only Knew
TTITLE2=Leatherwood
TTITLE3=Cobblestone Mountain
TTITLE4=Mr. Powell
TTITLE5=Gypsy Forest
TTITLE6=Thin Ice
TTITLE7=From Time To Time
TTITLE8=Southern Cross
TTITLE9=Out On The Sea
TTITLE10=Whippoorwill
TTITLE11=Fly Away Home
TTITLE12=You Know Like I Know
TTITLE13=Breakaway (From Those Chains)
TTITLE14=The Red Plum
TTITLE15=Mountain Range
TTITLE16=Watermill
TTITLE17=Noah
TTITLE18=It's How You Think
TTITLE19=Arroyo
TTITLE20=Homemade Wine
EXTD=
EXTT0=
EXTT1=
EXTT2=
EXTT3=
EXTT4=
EXTT5=
EXTT6=
EXTT7=
EXTT8=
EXTT9=
EXTT10=
EXTT11=
EXTT12=
EXTT13=
EXTT14=
EXTT15=
EXTT16=
EXTT17=
EXTT18=
EXTT19=
EXTT20=
PLAYORDER=
